<?xml version="1.0" standalone="no"?><!DOCTYPE svg PUBLIC "-//W3C//DTD SVG 1.1//EN" "http://www.w3.org/Graphics/SVG/1.1/DTD/svg11.dtd"><svg t="1578308122298" class="icon" viewBox="0 0 1024 1024" version="1.1" xmlns="http://www.w3.org/2000/svg" p-id="2259" xmlns:xlink="http://www.w3.org/1999/xlink" width="20" height="20"><defs><style type="text/css"></style></defs><path d="M921.6 0H102.4C46.08 0 0 46.08 0 102.4v819.2C0 977.92 46.08 1024 102.4 1024h819.2c56.32 0 102.4-46.08 102.4-102.4V102.4C1024 46.08 977.92 0 921.6 0z m51.2 921.6c0 28.237-22.963 51.2-51.2 51.2H102.4c-28.237 0-51.2-22.963-51.2-51.2V102.4c0-28.237 22.963-51.2 51.2-51.2h819.2c28.237 0 51.2 22.963 51.2 51.2v819.2z" p-id="2260" fill="#8d8a8a"></path><path d="M854.746 281.395c-10.394-7.398-24.922-5.094-33.959 3.93l-399.91 399.923L203.558 467.93c-9.241-9.242-24.217-11.776-34.713-4.007-12.826 9.498-13.811 27.891-2.957 38.746l236.877 236.877c9.958 9.958 26.253 9.958 36.198 0l419.123-419.124c10.983-10.956 9.87-29.619-3.34-39.027z" p-id="2261" fill="#8d8a8a"></path></svg>