<?xml version="1.0" standalone="no"?><!DOCTYPE svg PUBLIC "-//W3C//DTD SVG 1.1//EN" "http://www.w3.org/Graphics/SVG/1.1/DTD/svg11.dtd"><svg t="1578308045600" class="icon" viewBox="0 0 1024 1024" version="1.1" xmlns="http://www.w3.org/2000/svg" p-id="1296" xmlns:xlink="http://www.w3.org/1999/xlink" width="20" height="20"><defs><style type="text/css"></style></defs><path d="M771.104 145.056V84.96c0-17.664-14.304-32-32-32s-32 14.336-32 32v60.096h-384V84.96c0-17.664-14.336-32-32-32s-32 14.336-32 32v60.096H56.896v825.952h910.208V145.056h-196z m-512 64.896v67.04c0 17.664 14.336 32 32 32s32-14.336 32-32v-67.04h384v67.04c0 17.664 14.304 32 32 32s32-14.336 32-32v-67.04H902.24v99.04H121.76v-99.04h137.344zM121.76 906.176V372.992h780.48v533.184H121.76z" p-id="1297" fill="#8d8a8a"></path><path d="M214.208 473.728h123.904V597.44H214.208V473.728zM442.912 473.728h123.904V597.44H442.912V473.728zM671.648 473.728h123.904V597.44H671.648V473.728zM214.208 692.32h123.904v123.712H214.208V692.32zM442.912 692.32h123.904v123.712H442.912V692.32zM671.648 692.32h123.904v123.712H671.648V692.32z" p-id="1298" fill="#8d8a8a"></path></svg>