<?xml version="1.0" standalone="no"?><!DOCTYPE svg PUBLIC "-//W3C//DTD SVG 1.1//EN" "http://www.w3.org/Graphics/SVG/1.1/DTD/svg11.dtd"><svg t="1578308097324" class="icon" viewBox="0 0 1024 1024" version="1.1" xmlns="http://www.w3.org/2000/svg" p-id="1709" xmlns:xlink="http://www.w3.org/1999/xlink" width="20" height="20"><defs><style type="text/css"></style></defs><path d="M40 212.8a4.2 4.2 0 1 0 134.4 0 4.2 4.2 0 1 0-134.4 0zM980.8 145.6H297.6c-9.6 0-16 8-16 16V264c0 9.6 8 16 16 16h683.2c9.6 0 16-8 16-16V161.6c0-9.6-8-16-16-16zM28.8 497.6a4.2 4.2 0 1 0 134.4 0 4.2 4.2 0 1 0-134.4 0zM968 430.4H284.8c-9.6 0-16 8-16 16v102.4c0 9.6 8 16 16 16H968c9.6 0 16-8 16-16V446.4c0-8-6.4-16-16-16zM28.8 795.2a4.2 4.2 0 1 0 134.4 0 4.2 4.2 0 1 0-134.4 0zM968 728H284.8c-9.6 0-16 8-16 16v102.4c0 9.6 8 16 16 16H968c9.6 0 16-8 16-16V744c0-8-6.4-16-16-16z" p-id="1710" fill="#8d8a8a"></path></svg>