<?xml version="1.0" standalone="no"?><!DOCTYPE svg PUBLIC "-//W3C//DTD SVG 1.1//EN" "http://www.w3.org/Graphics/SVG/1.1/DTD/svg11.dtd"><svg t="1578308116325" class="icon" viewBox="0 0 1024 1024" version="1.1" xmlns="http://www.w3.org/2000/svg" p-id="2076" xmlns:xlink="http://www.w3.org/1999/xlink" width="20" height="20"><defs><style type="text/css"></style></defs><path d="M89.844 62.338H450.35c36.619 3.6 27.788 67.219 27.788 108.563V367.72c0 42.75 8.156 95.175-20.587 107.325-18.675 7.875-68.906 2.363-93.15 2.363H173.263c-44.156 0-104.456 10.406-111.262-27.45V89.789c4.95-13.444 13.612-23.119 27.844-27.45zM139.4 143.45v256.444h260.1V139.85H140.637c-1.406 0.225-1.35 1.913-1.238 3.6z m434.306-81.112h360.506c14.681 5.4 24.75 15.3 27.787 32.231v350.663c-3.319 14.569-11.025 27-25.425 30.994-23.512 6.525-62.606 1.181-90.731 1.181H660.781c-27.9 0-69.3 5.794-91.913-1.181-32.006-9.844-23.006-71.438-23.006-114.469V178.045c0-49.725-11.081-108.731 27.844-115.706z m49.613 81.112v256.444h260.1V139.85H624.5c-1.406 0.225-1.294 1.913-1.181 3.6zM257.975 218.6c36.225-6.75 64.688 17.381 65.306 50.062 0.787 43.144-43.875 66.825-78.637 48.881-39.769-20.475-37.125-89.55 13.331-98.944z m483.863 0c85.331-15.694 83.7 117.506 0 103.781-53.269-8.775-54.956-93.656 0-103.781zM447.875 961.662H91.025c-14.794-4.5-24.806-13.725-29.025-28.631V574.043c3.544-10.519 11.644-22.781 24.188-26.269 23.681-6.581 62.381-1.181 90.731-1.181h185.063c27.337 0 67.162-6.019 91.912 1.181 33.525 9.731 24.188 70.313 24.188 113.287V850.68c0.056 46.406 10.181 106.819-30.206 110.981zM139.4 627.706V884.15h260.1V624.106H140.637c-1.406 0.225-1.35 1.912-1.238 3.6zM962 578.769V678.95c-2.813 33.806-0.394 72.731-1.181 108.506H703.138v-58.444c-24.188-2.813-53.606-0.394-79.819-1.181-2.813 75.544-0.394 156.262-1.237 233.775h-47.194c-40.556-8.044-29.025-68.006-29.025-115.706V661.006c0-27.788-5.738-69.469 1.181-91.856 8.269-26.662 44.044-22.669 79.819-22.669H802.25v158.625h81.056c0.788-52.481-1.631-108.112 1.181-158.625 39.094-2.194 75.206-1.631 77.512 32.287z m-698.006 122.85c38.7-4.219 70.65 32.456 55.631 72.788-20.812 55.912-120.263 34.875-101.644-35.775 5.231-19.575 20.081-34.144 46.012-37.013z m526.218 260.043h-87.075c0.788-30.6-1.631-64.406 1.238-93.037h85.894l-0.056 93.037zM962 868.625v60.806c-3.375 16.931-13.444 27.338-29.025 32.231h-61.706c0.787-30.6-1.631-64.406 1.238-93.037h89.494z" p-id="2077" fill="#8d8a8a"></path></svg>